<svg width="112" height="196" viewBox="0 0 112 196" fill="none" xmlns="http://www.w3.org/2000/svg">
<mask id="mask0" mask-type="alpha" maskUnits="userSpaceOnUse" x="0" y="0" width="112" height="196">
<rect width="112" height="196" fill="#C4C4C4"/>
</mask>
<g mask="url(#mask0)">
<path d="M34.0972 161.228C34.0972 161.228 36.0285 161.453 37.4331 163.567C39.2327 166.267 39.8472 169.146 38.706 171.531C37.5648 173.87 37.3014 174.455 37.082 175.715C36.9503 176.48 37.6526 179.134 37.872 179.719C38.2232 180.934 37.3014 181.069 37.3014 181.069C37.6965 181.924 37.2575 182.509 37.0381 182.509C35.9407 182.374 35.2823 178.999 34.5801 177.56C34.5801 177.56 35.6774 181.519 35.853 183.409C35.9846 185.163 34.3167 185.028 33.8339 183.139C33.8339 183.139 32.4732 182.644 31.9026 180.889C31.332 179.134 30.4541 175.625 30.7613 173.465C31.0686 171.306 32.2098 166.267 32.2098 166.267L34.0972 161.228Z" fill="#FAC2A8"/>
<path d="M32.7366 169.278C33 170.043 33.2195 170.853 33.4389 171.663C33.6145 172.473 33.7901 173.282 33.834 174.137C33.834 174.362 33.834 174.542 33.7901 174.767C33.7462 174.947 33.7462 175.127 33.7901 175.352C33.834 175.712 34.0095 176.072 34.229 176.342C34.4924 176.612 34.8435 176.747 35.1069 176.567C35.2385 176.477 35.3702 176.342 35.4141 176.207C35.5019 176.072 35.5458 175.892 35.5458 175.712C35.5897 175.307 35.5458 174.902 35.5458 174.497C35.5458 174.092 35.5458 173.642 35.6336 173.237C35.7653 172.383 36.1164 171.573 36.687 170.943C36.9504 170.628 37.2576 170.358 37.4771 169.998C37.6965 169.683 37.8721 169.323 37.9599 168.918C38.1794 168.153 38.0477 167.298 37.6527 166.579C38.1355 167.253 38.3549 168.108 38.1794 168.963C38.0477 169.818 37.4771 170.538 36.9504 171.123C36.4675 171.753 36.1603 172.473 36.0286 173.282C35.8969 174.047 35.9847 174.857 35.9408 175.712C35.8969 175.937 35.8969 176.162 35.7653 176.387C35.6336 176.567 35.5019 176.792 35.2824 176.882C35.063 177.017 34.7996 177.017 34.5801 176.927C34.3607 176.837 34.1412 176.702 34.0095 176.567C33.7023 176.252 33.5267 175.802 33.4828 175.352C33.4389 175.127 33.4828 174.902 33.5267 174.677C33.5706 174.497 33.5706 174.272 33.5706 174.092C33.5706 173.282 33.4389 172.473 33.3072 171.663C33.1317 170.898 32.9122 170.088 32.7366 169.278Z" fill="#DC918B"/>
<path d="M33.0439 175.177C33.0878 175.897 33.1317 176.572 33.2195 177.246C33.3073 177.921 33.4829 178.596 33.7023 179.226C33.7901 179.541 33.9657 179.856 34.0974 180.171C34.2291 180.486 34.4046 180.756 34.5802 181.116C34.7119 181.431 34.7997 181.881 34.6241 182.196C34.4924 182.556 34.1852 182.78 33.834 182.915C34.1413 182.735 34.4046 182.466 34.4924 182.151C34.5802 181.836 34.4924 181.521 34.3607 181.206C34.2291 180.936 34.0096 180.621 33.834 180.306C33.6584 179.991 33.5268 179.676 33.3951 179.316C33.1317 178.641 32.9562 177.966 32.8684 177.246C32.7367 176.617 32.7367 175.852 33.0439 175.177Z" fill="#DC918B"/>
<path d="M36.379 176.031C36.3351 176.436 36.379 176.841 36.5107 177.201C36.5546 177.381 36.6863 177.516 36.7741 177.696C36.8619 177.875 36.9496 178.1 36.9935 178.28C37.213 179.09 37.3447 179.9 37.3886 180.71C37.1691 179.945 36.9935 179.135 36.6863 178.415C36.5985 178.235 36.5107 178.055 36.4229 177.92C36.3351 177.741 36.2474 177.516 36.2474 177.291C36.2035 176.841 36.2474 176.436 36.379 176.031Z" fill="#DC918B"/>
<path d="M32.1227 161.226L31.0254 166.175C31.0254 166.175 36.9509 165.546 40.4624 169.55L41.428 162.261C41.4719 162.261 39.1456 160.191 32.1227 161.226Z" fill="#EF3F54"/>
<path d="M32.1222 161.229C32.1222 161.229 30.2787 155.11 32.0783 150.656C33.878 146.201 36.4676 126.405 38.1356 119.026C39.0134 115.157 42.6566 110.028 44.8512 109.218C46.6069 108.543 47.0898 127.8 47.4409 130.274C45.2902 136.618 41.9104 145.707 41.9104 146.516C41.9104 153.535 38.6623 163.029 38.6623 163.029C38.6623 163.029 35.4581 161.724 32.1222 161.229Z" fill="#BD1A3B"/>
<path d="M40.461 144.039L39.0565 175.039C39.0565 175.039 48.8446 180.303 56.5698 180.663C62.1442 208.873 60.8274 210.807 61.3102 213.507C61.5736 214.857 63.0221 237.263 62.8904 238.073C62.7148 238.882 62.5831 240.277 62.8026 241.222C62.9782 241.942 62.5392 245.676 62.5392 245.676C62.5392 245.676 64.7778 246.351 67.6308 246.666C70.4839 246.981 74.1709 245.946 75.2682 245.946C75.2682 245.946 74.961 243.967 75.2682 242.707C75.5316 241.672 74.6098 240.367 74.961 239.242C75.2682 238.118 75.7071 232.134 75.7071 225.7C75.7071 218.006 75.2682 211.707 74.4781 209.413C74.7854 188.716 74.522 176.658 74.4781 175.579C74.3465 170.764 73.7319 167.165 73.7319 165.86C73.7319 164.556 72.7663 143.814 72.7663 143.814L40.461 144.039Z" fill="#474E64"/>
<path d="M51.7839 169.057C51.9155 170.362 52.0472 171.712 52.1789 173.062C52.3106 174.411 52.3984 175.716 52.4861 177.066V177.336H52.2228H49.5892H49.3697V177.111C49.3258 175.941 49.282 174.771 49.2381 173.602C49.1942 172.432 49.1942 171.262 49.1503 170.092L49.282 170.227C48.6236 170.137 48.0091 170.047 47.3507 169.957H47.3068V169.912C47.3945 169.552 47.5262 169.237 47.614 168.877C47.5262 169.237 47.4823 169.597 47.3946 169.912L47.3507 169.822C48.0091 169.867 48.6674 169.912 49.282 169.957H49.4136V170.092C49.5014 171.262 49.5892 172.432 49.677 173.557C49.7648 174.726 49.8087 175.896 49.8965 177.021L49.6331 176.796H52.2667L52.0472 177.066C52.0033 175.716 51.9155 174.411 51.9155 173.062C51.7839 171.712 51.7839 170.407 51.7839 169.057Z" fill="#343948"/>
<path d="M74.4788 162.531L74.4349 166.13C74.4349 166.13 62.101 168.425 59.9502 168.56C57.7994 168.65 56.5704 164.871 56.5704 164.871L58.809 162.756L74.4788 162.531Z" fill="#EF3F54"/>
<path d="M38.88 161.544L38.4411 165.144C38.4411 165.144 46.2541 167.798 48.3609 168.158C50.4678 168.563 52.2235 165.009 52.2235 165.009L50.2922 162.624L38.88 161.544Z" fill="#EF3F54"/>
<path d="M39.0563 174.996C39.0563 174.996 40.1097 200.236 40.1097 201.361C40.1097 202.486 40.8998 239.244 40.5925 240.054C40.2853 240.864 39.8025 244.868 39.8025 244.868C39.8025 244.868 43.0944 246.218 45.2452 246.353C47.2204 246.488 48.186 246.623 53.5849 245.318C53.1459 241.989 53.1898 238.254 53.1898 237.13C53.1898 236.005 54.3311 223.182 54.3311 221.382C54.3311 219.583 55.2528 209.145 54.1555 204.645C53.8043 203.296 55.1211 180.485 55.1211 180.485C55.1211 180.485 47.3521 179.135 39.0563 174.996Z" fill="#343948"/>
<path d="M38.1343 166.31V170.314C38.1343 170.314 43.7965 174.543 59.9492 173.733C76.1018 172.923 74.785 171.979 74.785 171.979L74.4778 165.185L38.1343 166.31Z" fill="#31374C"/>
<path d="M75.3557 110.789C75.3557 110.789 72.8977 109.619 68.2012 108.269C65.1286 107.414 62.539 106.829 59.1153 106.829C53.3653 106.784 46.7814 108.584 44.9378 109.169C43.0066 109.799 40.8119 116.818 40.373 124.286C40.0218 130.09 39.3195 138.594 38.7928 148.582C38.4856 154.116 36.5104 163.024 38.1783 166.309C58.6764 172.743 74.5218 166.129 74.5218 166.129C76.7603 161.855 74.6095 156.321 76.6725 131.53C77.6382 119.427 75.3557 110.789 75.3557 110.789Z" fill="#BD1A3B"/>
<path d="M44.8934 109.216C44.3666 109.441 44.0155 109.936 43.7521 110.386C43.4449 110.881 43.2254 111.376 43.006 111.916C42.567 112.951 42.2598 114.03 41.9525 115.155C41.3819 117.36 41.0308 119.564 40.7674 121.814C40.6357 122.939 40.5918 124.064 40.5041 125.188L40.2846 128.608C40.1529 130.857 39.9773 133.152 39.8018 135.402C39.4506 139.946 39.1434 144.49 38.7044 148.989C38.3094 153.534 37.8705 158.033 37.3438 162.577L39.275 135.357L39.7579 128.563L39.9773 125.144C40.0651 124.019 40.109 122.849 40.2846 121.724C40.5479 119.475 40.9869 117.225 41.6453 115.02C41.9525 113.94 42.3476 112.861 42.8304 111.826C43.0499 111.331 43.3571 110.791 43.6644 110.341C43.9716 109.846 44.3666 109.396 44.8934 109.216Z" fill="#E0363C"/>
<path d="M64.8212 93.6929L51.4777 94.0978C51.4777 94.0978 52.1361 100.982 52.18 110.43C52.18 112.229 53.1457 114.749 53.1457 114.749C53.1457 114.749 58.9395 113.984 64.8651 107.28C64.4262 105.526 64.8212 93.6929 64.8212 93.6929Z" fill="#DC918B"/>
<path d="M51.8282 168.653C50.3359 147.687 54.3301 118.892 54.6374 116.778L52.9694 114.843L53.3645 114.483L55.208 116.598V116.733C55.1641 117.047 50.8626 147.012 52.3988 168.608L51.8282 168.653Z" fill="#E0363C"/>
<path d="M27.0296 72.4141C27.0296 72.4141 23.5182 60.6262 18.1632 65.6653C12.8083 70.7044 20.5334 86.0917 29.1365 82.1774C29.1365 82.2224 31.1556 80.4677 27.0296 72.4141Z" fill="#F7AB8D"/>
<path d="M15.0479 28.9082C8.5517 30.9328 11.8437 43.7106 13.1605 47.085C18.0326 59.6828 18.9982 70.8858 23.212 74.8901C23.212 74.8901 25.6261 25.6238 15.0479 28.9082Z" fill="#2B2E3A"/>
<path d="M83.1242 69.4873C83.0803 70.0272 81.7196 84.1097 73.3799 82.625L74.0383 73.8515L83.1242 69.4873Z" fill="#2B2E3A"/>
<path d="M74.6115 23.598C74.6115 23.598 25.4513 17.4791 18.1211 32.3265C12.3711 43.9344 18.9551 55.1374 22.1154 69.6699C24.4856 80.5129 24.8807 88.1166 25.9341 89.9163C30.499 98.0148 42.1306 105.214 47.5733 105.034C59.6 104.629 69.9149 94.2355 73.6897 86.6319C75.7966 82.3126 76.3672 69.1749 75.3576 53.7427C74.5237 40.515 76.6744 28.5472 74.6115 23.598Z" fill="#FAC2A8"/>
<path d="M52.8125 56.1366C53.6413 55.9503 54.1699 55.1302 53.9933 54.3049C53.8167 53.4797 53.0016 52.9618 52.1729 53.1481C51.3441 53.3345 50.8154 54.1546 50.9921 54.9798C51.1687 55.8051 51.9837 56.323 52.8125 56.1366Z" fill="#31374C"/>
<path d="M52.9858 54.3211C53.2213 54.2625 53.366 54.0195 53.3089 53.7783C53.2518 53.5372 53.0145 53.3892 52.779 53.4478C52.5434 53.5064 52.3988 53.7495 52.4559 53.9906C52.513 54.2318 52.7502 54.3797 52.9858 54.3211Z" fill="white"/>
<path opacity="0.2" d="M23.9577 66.0234C23.9577 67.1032 25.7134 67.958 27.8642 67.913C30.0149 67.868 31.7267 66.9682 31.7267 65.8884C31.7267 64.8086 29.971 63.9538 27.8203 63.9988C25.6695 64.0438 23.9577 64.9436 23.9577 66.0234Z" fill="#EF3F54"/>
<path opacity="0.2" d="M50.9958 62.245C51.4786 63.3698 53.7172 63.4598 55.9557 62.38C58.1943 61.3452 59.5989 59.5905 59.116 58.4657C58.6332 57.3409 56.3947 57.2509 54.1561 58.3307C51.8737 59.3655 50.4691 61.1202 50.9958 62.245Z" fill="#EF3F54"/>
<path d="M28.5423 60.993C29.3711 60.8066 29.8998 59.9866 29.7231 59.1613C29.5465 58.3361 28.7315 57.8182 27.9027 58.0046C27.0739 58.191 26.5453 59.011 26.7219 59.8362C26.8985 60.6615 27.7136 61.1794 28.5423 60.993Z" fill="#31374C"/>
<path d="M28.7157 59.1737C28.9512 59.1151 29.0959 58.872 29.0388 58.6309C28.9817 58.3897 28.7444 58.2417 28.5088 58.3004C28.2733 58.359 28.1286 58.602 28.1857 58.8432C28.2428 59.0843 28.4801 59.2323 28.7157 59.1737Z" fill="white"/>
<path d="M19.6132 50.2312C20.9739 48.2066 22.6857 46.5868 26.3727 46.0469C28.304 46.0019 30.3231 45.777 28.3918 43.9773C25.0998 41.2778 17.8574 45.822 17.5941 51.221C17.2429 53.5606 18.867 51.7159 19.6132 50.2312Z" fill="#2B2E3A"/>
<path d="M56.3071 43.2145C54.4636 41.5948 52.4007 40.515 48.7137 40.9649C46.8262 41.4149 44.8511 41.7748 46.2556 39.5252C48.7575 36.0159 56.8778 38.5354 58.5018 43.6195C59.4675 45.824 57.4484 44.4743 56.3071 43.2145Z" fill="#2B2E3A"/>
<path opacity="0.6" d="M41.3848 45.2385C41.3848 45.2385 38.5757 49.4228 32.1234 50.1877C32.1234 50.1877 38.6196 59.681 35.4154 72.8637C35.4154 72.8637 42.4822 76.0581 47.6176 69.5792C47.5738 69.5792 41.0776 58.4212 41.3848 45.2385Z" fill="url(#paint0_linear)"/>
<path d="M73.2049 65.7532C68.64 58.3745 70.4835 50.3659 65.5675 42.5823C61.8804 36.8234 61.0904 26.3852 63.2411 22.7859C63.2411 22.7859 76.014 18.4217 76.7163 18.8266C80.8861 21.2561 86.5483 33.9889 84.3098 59.9042L73.2049 65.7532Z" fill="#2B2E3A"/>
<path d="M74.0827 62.38C74.0827 62.38 75.3117 54.9563 81.6762 57.0709C88.0407 59.2305 88.743 78.0823 74.3461 74.9778C74.3461 74.9778 73.0293 70.1186 74.0827 62.38Z" fill="#FAC2A8"/>
<path d="M82.3354 61.8412C81.5893 61.4363 80.7114 61.1663 79.8774 61.2113C79.0435 61.2113 78.2534 61.6613 77.7706 62.3361C77.2878 63.011 76.9805 63.7759 76.761 64.5857C76.5416 65.3956 76.4538 66.2505 76.366 67.0603L76.0588 66.7904C76.8927 66.6554 77.7267 66.7454 78.4729 67.1953C79.219 67.6002 79.658 68.4101 79.7458 69.2199C79.8335 69.6249 79.7458 70.0298 79.658 70.4347C79.5263 70.8397 79.2629 71.1546 78.9557 71.4245C78.3412 71.9195 77.595 72.2344 76.8049 72.3694C77.5511 72.1444 78.2534 71.7845 78.7801 71.2446C79.0435 70.9746 79.2629 70.6597 79.3507 70.3447C79.4385 69.9848 79.4824 69.6699 79.3946 69.3099C79.2629 68.59 78.8679 67.9601 78.2534 67.6452C77.6389 67.2853 76.8488 67.2403 76.1904 67.3753L75.8832 67.4202L75.9271 67.1053C76.0149 66.2504 76.1465 65.3956 76.366 64.5407C76.5855 63.6859 76.9366 62.831 77.5072 62.1562C78.0778 61.4363 78.9996 60.9864 79.9213 61.0314C80.7992 60.9414 81.6331 61.3013 82.3354 61.8412Z" fill="#DC918B"/>
<path d="M35.3704 72.8166C35.3704 72.8166 42.5689 81.275 47.5727 69.5322C47.5727 69.5772 42.7444 72.7266 35.3704 72.8166Z" fill="#DC918B"/>
<path d="M9.47451 22.9663C13.6443 17.4323 21.3695 6.45422 32.4745 4.96948C38.005 4.33959 38.5756 5.59937 38.5756 5.59937C38.005 4.78951 35.8542 2 35.8542 2C45.1157 5.01447 75.4897 -4.88379 76.6748 18.872C78.5183 20.4018 79.6595 21.6616 79.7912 22.2914C80.4496 25.3059 64.3408 41.953 64.4286 34.2593C64.7798 27.7355 65.1748 26.8806 62.5412 25.5309C57.7569 23.0563 50.295 23.9112 34.0985 31.5148C26.505 35.0692 12.3714 40.5133 0.520325 29.7151C0.520325 29.6702 5.30467 28.5004 9.47451 22.9663Z" fill="#2B2E3A"/>
<path d="M33.1329 81.5938C40.9897 86.408 37.6539 93.7417 47.9687 92.392C57.7569 90.0524 59.6443 73.0903 59.6443 73.0903C45.9496 85.9131 33.1329 81.5938 33.1329 81.5938Z" fill="#31374C"/>
<path d="M55.8694 85.417C48.232 86.6318 44.6767 89.6913 43.0526 92.2108C44.2377 92.6158 45.8179 92.7057 47.9686 92.4358C51.5679 91.5359 54.1137 88.7014 55.8694 85.417Z" fill="#F97A7A"/>
<path d="M33.1329 81.5939C34.8008 82.5837 35.942 83.7085 36.8199 84.8333C37.2149 85.3282 50.7779 84.7883 58.503 78.5794C59.337 75.4749 59.6004 73.0903 59.6004 73.0903C45.9496 85.9131 33.1329 81.5939 33.1329 81.5939Z" fill="white"/>
<path d="M34.1424 82.2692C34.4936 82.4942 34.8008 82.7641 35.1081 83.0341C35.4153 83.304 35.7226 83.574 36.0298 83.8889C36.3371 84.2039 36.6004 84.5188 36.8638 84.8338C37.9172 86.1385 38.7073 87.6233 39.5852 89.018C40.0241 89.7379 40.5069 90.4128 41.0775 90.9527C41.3848 91.2226 41.692 91.4476 42.0432 91.6725C42.3943 91.8525 42.7455 92.0325 43.1405 92.1225C43.3161 92.1675 43.5355 92.2124 43.7111 92.2574C43.8867 92.3024 44.1062 92.3474 44.2817 92.3474C44.6768 92.3924 45.0718 92.4374 45.4668 92.4374C45.8619 92.4374 46.2569 92.4374 46.6958 92.3924C47.0909 92.3924 47.4859 92.3024 47.881 92.2574C49.7245 91.8075 51.4363 90.7277 52.797 89.333C54.1577 87.9382 55.2111 86.2735 56.089 84.4738C56.9668 82.7191 57.6252 80.8295 58.1519 78.9398C58.4153 77.995 58.6786 77.0051 58.8542 76.0603C59.0737 75.0705 59.2493 74.1256 59.3809 73.1358L59.7321 73.3158L58.3714 74.5306C57.8886 74.9355 57.4496 75.3404 56.9668 75.7004C56.484 76.0603 56.0012 76.4652 55.4745 76.7802C54.9916 77.1401 54.4649 77.5 53.9382 77.815C53.4115 78.1299 52.8848 78.4449 52.358 78.7598C51.8313 79.0748 51.2607 79.3447 50.734 79.6147C50.1634 79.8846 49.6367 80.1096 49.0661 80.3345C48.4955 80.5595 47.9248 80.7845 47.3542 80.9644C46.7836 81.1444 46.213 81.3244 45.5985 81.5043C45.0279 81.6843 44.4134 81.8193 43.8428 81.9093C43.2283 82.0442 42.6577 82.1342 42.0432 82.2242C41.4287 82.3142 40.8581 82.3592 40.2436 82.4042C39.0146 82.4492 37.8294 82.4492 36.6004 82.3592C35.4153 82.2242 34.1863 82.0442 33.0451 81.6843C33.4401 81.8193 33.8352 82.0442 34.1424 82.2692ZM36.6882 82.1792C37.8733 82.2692 39.1023 82.2692 40.2875 82.1342C40.902 82.0892 41.4726 81.9993 42.0871 81.9093C42.7016 81.8193 43.2722 81.7293 43.8428 81.5943C44.4134 81.4593 45.0279 81.3244 45.5985 81.1444C46.1691 80.9644 46.7397 80.7845 47.3103 80.6045C47.881 80.3795 48.4516 80.1996 48.9783 79.9296C49.5489 79.7047 50.0756 79.4347 50.6023 79.1648C51.129 78.8948 51.6558 78.6248 52.1825 78.3099C52.7092 77.995 53.2359 77.725 53.7187 77.3651C54.2454 77.0501 54.7283 76.6902 55.2111 76.3303C55.6939 76.0153 56.1767 75.6104 56.6596 75.2504C57.1424 74.8905 57.5813 74.4856 58.0641 74.0806L59.4248 72.8659L59.8638 72.4609L59.776 73.0458C59.6443 74.0357 59.4687 75.0255 59.2931 76.0153C59.0737 77.0051 58.8542 77.995 58.5909 78.9398C58.0641 80.8744 57.3619 82.7641 56.484 84.5638C55.6061 86.3635 54.5088 88.0732 53.1042 89.5129C51.6997 90.9527 49.9439 92.0775 47.9687 92.4824C47.5737 92.5274 47.1348 92.5724 46.7397 92.5724C46.3447 92.6174 45.9058 92.6174 45.5107 92.6174C45.1157 92.6174 44.6768 92.5724 44.2817 92.5274C44.0623 92.5274 43.8867 92.4824 43.6672 92.4374C43.4478 92.3924 43.2722 92.3474 43.0527 92.2574C42.6577 92.1225 42.2626 91.9425 41.9115 91.7625C41.5604 91.5376 41.2092 91.3126 40.902 90.9977C40.2875 90.4128 39.8046 89.7379 39.3657 89.018C38.9268 88.2981 38.5317 87.5783 38.1367 86.8584C37.7417 86.1385 37.2588 85.4636 36.776 84.7888C36.5127 84.4738 36.2493 84.1589 35.9859 83.8439C35.7226 83.529 35.4153 83.259 35.1081 82.9891C34.8008 82.7191 34.4936 82.4492 34.1424 82.2242C33.8352 81.9543 33.484 81.7293 33.1329 81.5043C34.2741 81.9093 35.4592 82.0892 36.6882 82.1792Z" fill="#DC918B"/>
<path d="M56.747 73.0896C56.747 73.0896 57.142 72.9097 57.6688 72.8197C57.8004 72.7747 57.976 72.7747 58.1077 72.7297C58.2833 72.6847 58.4588 72.7297 58.5905 72.6847C58.7661 72.6847 58.9417 72.6847 59.1172 72.7297C59.205 72.7297 59.2928 72.7747 59.3806 72.7747L59.644 72.8647C59.8195 72.9097 59.9512 72.9997 60.1268 73.0896C60.2585 73.1796 60.434 73.3146 60.5657 73.4046C60.6974 73.5396 60.8291 73.6296 60.9608 73.7645C61.0485 73.8995 61.1802 73.9895 61.268 74.1245C61.3558 74.2145 61.4436 74.3494 61.5314 74.4394C61.6192 74.5294 61.663 74.6194 61.7069 74.7094C61.7947 74.8444 61.8825 74.9344 61.8825 74.9344C61.8825 74.9344 61.8386 74.8444 61.7947 74.6644C61.7069 74.4844 61.663 74.2595 61.4875 73.9895C61.3997 73.8545 61.3119 73.7195 61.2241 73.5396C61.0924 73.4046 61.0046 73.2696 60.873 73.0896C60.7413 72.9547 60.5657 72.8197 60.3901 72.6847C60.2146 72.5947 60.039 72.4597 59.8195 72.4147L59.5123 72.3248C59.4245 72.2798 59.2928 72.2798 59.205 72.2798C58.9856 72.2348 58.81 72.2798 58.5905 72.2798C58.415 72.3248 58.1955 72.3248 58.0199 72.3697C57.8443 72.4147 57.7127 72.4597 57.5371 72.5497C57.0543 72.7747 56.747 73.0896 56.747 73.0896Z" fill="#DC918B"/>
<path d="M48.8883 18.824C48.8883 18.824 51.1269 23.6831 44.9819 28.9022C38.0468 34.7512 29.1804 35.561 29.1804 35.561C29.1804 35.561 33.2185 32.5016 32.4723 29.1722C31.375 24.268 40.1536 16.1694 40.1536 16.1694L48.8883 18.824Z" fill="#2B2E3A"/>
<path d="M28.7432 5.86987C28.7432 5.86987 25.8024 6.72472 14.6974 13.6984C10.0448 16.6229 6.57722 11.7638 6.57722 11.7638C6.57722 11.7638 3.59249 23.7316 14.8291 22.4718C26.0657 21.1671 28.7432 5.86987 28.7432 5.86987Z" fill="#2B2E3A"/>
<path d="M64.6486 102.289C64.6486 102.289 59.3375 105.213 56.265 105.438C53.1925 105.663 53.807 113.132 53.5875 115.157C53.5875 115.157 60.7421 114.122 63.4635 112.007C66.1848 109.893 67.1505 108.228 67.1505 108.228C67.1505 108.228 67.5016 103.864 67.0627 102.064C66.931 101.614 64.6047 100.354 64.6047 100.354L64.6486 102.289Z" fill="#31374C"/>
<path d="M51.0844 104.625C51.0844 104.625 50.3821 104.94 49.8993 105.614C49.4164 106.289 50.5138 110.834 50.3382 111.958C50.1626 113.083 52.7084 114.928 52.7084 114.928L53.3229 114.388L52.9718 106.829C52.9718 106.334 52.6206 105.884 52.1378 105.749L52.0939 104.4L51.0844 104.625Z" fill="#31374C"/>
<path d="M53.9804 114.976L53.7171 114.886V114.256L53.0587 114.031L52.7514 114.526L52.4442 114.481L51.3907 117.046C51.2591 117.361 51.4346 117.721 51.7419 117.811L52.6636 118.126C52.9709 118.216 53.322 118.036 53.4098 117.676L53.9804 114.976Z" fill="#E1E4F4"/>
<path d="M62.2775 125.412C62.1459 125.412 62.0581 125.457 61.9703 125.592L60.6974 127.167L60.3462 125.547C60.3023 125.367 60.2146 125.322 60.1268 125.322C59.9951 125.322 59.9073 125.367 59.8195 125.502L58.6344 127.572L59.205 127.617L59.9951 126.177L60.3462 127.707L60.8291 127.752L61.9703 126.357L61.8825 127.842L62.3653 127.887L62.497 125.817C62.497 125.547 62.3653 125.457 62.2775 125.412Z" fill="white"/>
<path d="M58.0203 125.547L57.4058 127.481H57.9325L58.5471 125.547H58.0203Z" fill="white"/>
<path d="M57.0546 126.039C57.0985 125.769 56.9668 125.454 56.4401 125.454L55.4306 125.364L54.86 127.298L55.3867 127.343L55.6062 126.623H55.8695L56.3084 127.388L56.8791 127.433L56.3962 126.623C56.8352 126.533 57.0107 126.264 57.0546 126.039ZM56.0451 126.309L55.6501 126.264L55.8256 125.679L56.2207 125.724C56.4401 125.724 56.5279 125.859 56.484 126.039C56.484 126.219 56.3084 126.309 56.0451 126.309Z" fill="white"/>
<path d="M64.5607 127.928L65.0874 127.973L64.7363 126.129C64.6924 125.904 64.5607 125.859 64.429 125.859C64.3413 125.859 64.2535 125.904 64.1657 125.994L62.7611 127.793L63.2878 127.838L63.5512 127.433L64.4729 127.478L64.5607 127.928ZM63.7706 127.164L64.2974 126.489L64.429 127.208L63.7706 127.164Z" fill="white"/>
<path d="M66.7098 127.705C66.2708 127.66 66.0514 127.39 66.0953 127.075C66.183 126.67 66.5781 126.4 67.1048 126.445C67.2804 126.445 67.4559 126.49 67.6315 126.535L67.7632 126.131C67.6315 126.086 67.3682 126.041 67.1926 126.041C66.2708 125.996 65.7002 126.355 65.5685 126.985C65.4808 127.57 65.8319 127.974 66.6659 128.019C66.8414 128.019 66.9731 128.019 67.1926 128.019L67.3243 127.615C67.1048 127.705 66.9292 127.75 66.7098 127.705Z" fill="white"/>
<path d="M44.6748 145.254C44.6748 145.254 43.8409 144.489 43.7531 143.859C43.6653 143.23 44.2798 142.24 44.2798 142.24C44.2798 142.24 43.7531 141.475 44.0164 140.53C44.2798 139.54 44.8943 139.135 44.8943 139.135C44.8943 139.135 44.1042 138.37 44.3676 137.471C44.631 136.526 45.6405 136.211 46.9573 136.391C46.9573 136.391 54.3313 136.526 55.297 137.381C56.6576 138.55 58.4134 141.97 58.4134 141.97C59.6424 143.14 59.2473 148.404 59.2473 148.404L55.9115 147.954C54.9019 149.034 47.9668 148.944 47.3084 148.629C45.86 147.999 45.5088 147.909 44.5871 147.099C43.9726 146.514 44.6748 145.254 44.6748 145.254Z" fill="#FAC2A8"/>
<path d="M52.0498 130.767C51.9621 131.982 52.4449 132.612 53.8056 135.356C54.3762 136.526 55.9563 135.941 57.6243 140.396C58.0632 141.61 49.9869 138.191 50.4697 137.696C51.4353 136.616 49.1968 134.592 49.2407 132.117C49.2407 129.957 52.2254 128.023 52.0498 130.767Z" fill="#FAC2A8"/>
<path d="M46.1228 136.438C46.1228 136.438 50.0293 136.123 50.6877 137.563C51.3461 138.958 50.7316 139.678 49.9415 139.768C49.9415 139.768 50.556 140.262 50.4244 141.297C50.2927 142.332 49.4148 142.467 48.4931 142.602C47.5713 142.737 45.1133 142.332 45.1133 142.332L46.1228 136.438Z" fill="#FAC2A8"/>
<path d="M57.8012 140.485L63.4195 141.475L62.4977 149.213L57.055 148.358L57.8012 140.485Z" fill="#EF3F54"/>
<path d="M61.8807 141.206C63.3731 137.561 68.9914 139.901 71.8444 139.406C70.7471 134.997 70.2643 130.408 70.2643 130.408L68.2013 125.954C68.4208 115.695 71.2738 111.376 75.1364 110.521C75.1364 110.521 79.4818 112.276 80.7986 118.62C81.1936 120.554 85.2757 147.415 80.9303 151.284C77.0238 154.748 64.9971 153.984 61.3979 150.339L61.8807 141.206Z" fill="#BD1A3B"/>
<path d="M61.8795 141.206C62.055 140.756 62.2745 140.351 62.6256 140.036C62.9768 139.721 63.3718 139.496 63.8107 139.316C64.6886 139.001 65.6104 138.956 66.4882 138.956C67.41 139.001 68.2878 139.091 69.1657 139.136C70.0436 139.226 70.9653 139.271 71.7993 139.136L71.6237 139.406C71.2287 137.921 70.9214 136.437 70.6581 134.907C70.3947 133.422 70.1752 131.892 69.9997 130.363L70.0436 130.498C69.3413 129.013 68.639 127.483 67.9806 125.998L67.9367 125.954V125.909C67.9806 124.379 68.0684 122.849 68.2878 121.319C68.4634 119.79 68.7707 118.305 69.2535 116.82C69.3852 116.46 69.5169 116.1 69.6485 115.74C69.7802 115.38 69.9558 115.02 70.1314 114.705C70.3069 114.346 70.4825 114.031 70.702 113.716C70.9214 113.401 71.1409 113.086 71.4043 112.816C71.8871 112.231 72.4577 111.736 73.1161 111.331C73.7745 110.926 74.4768 110.656 75.223 110.521C74.5207 110.701 73.8184 111.016 73.2039 111.421C72.5894 111.871 72.0627 112.366 71.6237 112.951C70.702 114.121 70.1314 115.56 69.6924 116.955C69.2535 118.395 69.034 119.88 68.8585 121.409C68.6829 122.894 68.5951 124.424 68.5512 125.954L68.5073 125.819C69.2096 127.303 69.868 128.743 70.5264 130.228L70.5703 130.318V130.363C70.7459 131.847 70.9653 133.377 71.1848 134.862C71.4481 136.347 71.7554 137.831 72.0627 139.316L72.1065 139.541L71.8871 139.586C70.9653 139.721 70.0436 139.631 69.1657 139.496C68.2878 139.406 67.3661 139.271 66.4882 139.226C65.6104 139.181 64.6886 139.181 63.8546 139.406C62.9768 139.766 62.2306 140.351 61.8795 141.206Z" fill="#E0363C"/>
<path d="M80.9742 151.284C80.3597 151.869 79.5696 152.319 78.7796 152.634C77.9895 152.994 77.1116 153.219 76.2777 153.354C74.5658 153.669 72.8101 153.804 71.0983 153.714C69.3865 153.624 67.6307 153.399 65.9628 152.904C65.1288 152.679 64.2949 152.364 63.5048 151.959C62.7147 151.554 61.9685 151.105 61.3101 150.43L61.2224 150.34V150.25C61.2662 149.485 61.3101 148.72 61.354 147.955L61.5296 145.66C61.5735 144.896 61.6613 144.131 61.7052 143.366C61.7491 142.601 61.8369 141.836 61.8807 141.071C61.8807 141.836 61.8807 142.601 61.8369 143.366C61.8369 144.131 61.8369 144.896 61.793 145.66L61.7491 147.955C61.7052 148.72 61.7052 149.485 61.6613 150.25L61.5735 150.07C62.8025 151.24 64.4265 151.869 66.0506 152.319C67.6746 152.769 69.3865 153.039 71.0983 153.129C72.8101 153.219 74.5219 153.219 76.1899 152.949C77.9017 152.814 79.5696 152.364 80.9742 151.284Z" fill="#E0363C"/>
</g>
<defs>
<linearGradient id="paint0_linear" x1="38.0716" y1="45.6803" x2="41.7184" y2="73.4394" gradientUnits="userSpaceOnUse">
<stop stop-color="#FAC2A8"/>
<stop offset="0.2651" stop-color="#F7BCA5"/>
<stop offset="0.6038" stop-color="#EDAD9B"/>
<stop offset="0.981" stop-color="#DD938C"/>
<stop offset="1" stop-color="#DC918B"/>
</linearGradient>
</defs>
</svg>
